<?xml version="1.0" encoding="utf-8"?>
<!-- Generator: Adobe Illustrator 21.0.2, SVG Export Plug-In . SVG Version: 6.00 Build 0)  -->
<svg version="1.1" id="Layer_1" xmlns="http://www.w3.org/2000/svg" xmlns:xlink="http://www.w3.org/1999/xlink" x="0px" y="0px"
	 viewBox="0 0 452 191.3" style="enable-background:new 0 0 452 191.3;" xml:space="preserve">
<style type="text/css">
	.st0{fill:#FFFFFF;}
</style>
<g>
	<path d="M109.1,120.8c3.8-3.8,6.4-7.5,8.1-11.3c1.6-3.8,2.2-7.1,1.8-10.1l-0.8-2.6c1.9-0.6,3.9-1.2,5.9-1.8c2-0.6,3.9-1.1,5.7-1.7
		c0.1,0,0.2-0.1,0.4-0.1c-1.7,3.1-3.1,6-4,8.7c-1.3,3.8-1.9,7.3-1.9,10.4c0,4.9,1.5,8.7,4.5,11.2c3,2.5,7,3.5,12.1,2.9
		c0.7-0.1,1.4-0.2,2.2-0.3c0.8-0.2,1.5-0.3,2.4-0.6l0.2,0c3.2-0.9,6.2-2.5,9-4.8c2.8-2.2,5.2-4.5,7.4-6.8c0.1,2.8,1,5.2,2.6,7.2
		c1.7,2.1,4.6,3,8.6,2.5c2.6-0.3,5.1-1.3,7.5-2.9c2.4-1.6,4.6-3.7,6.8-6.1c2.1-2.4,4.1-5,5.9-7.9c1.8-2.9,3.6-5.7,5.2-8.5l1.6-2.9
		c3.4-1.4,6.2-2.7,8.2-3.9c3.6-2,5.9-3.2,8.3-5.5c1.5-1.4,2.7-2.9,4.9-5.7c1.7-2.1,2.9-3.9,3.7-5.2c2.1,1.7,3.6,3,4.6,4
		c1,0.9,1.5,2.1,1.5,3.5c0,0.7-0.1,1.1-0.2,1.4l-0.6,1.4c-0.3,0.4-0.8,1.3-1.5,2.7c-0.7,1.4-1.5,3.1-2.3,5.1c-0.8,2-1.6,4.2-2.3,6.6
		c-0.7,2.4-1.1,4.9-1.3,7.4c0,0.3,0.1,1.4,0.3,3.4c0.2,2,1.4,3.6,3.6,4.8l0.2,0.2c0.7,0.6,1.5,0.8,2.6,0.8c1-0.1,1.9-0.1,2.6-0.2
		c3.3-0.4,6.4-1.7,9.3-3.9c2.9-2.2,5.5-4.6,7.6-7.2c0.9-1.1,1.7-2.2,2.5-3.2c0.6,3,1.9,5.5,4,7.2c2.9,2.5,6.9,3.4,12,2.8
		c0.7-0.1,1.4-0.2,2.2-0.3c0.8-0.2,1.5-0.3,2.4-0.6l0.2,0c3.2-0.9,6.2-2.5,9-4.8c2.9-2.3,5.4-4.7,7.7-7.1c1.6-1.8,3-3.5,4.3-5.1
		c2.2-2.6,4.8-6.2,6.4-8.9c2.8-4.7,6.3-10.6,10.6-19.7c2.1,1.7,3.6,3,4.6,4c1,0.9,1.5,2.1,1.5,3.5c0,0.7-0.1,1.1-0.2,1.4l-0.6,1.4
		c-0.3,0.4-0.8,1.3-1.5,2.7c-0.7,1.4-1.5,3.1-2.3,5.1c-0.8,2-1.6,4.2-2.3,6.6c-0.7,2.4-1.1,4.9-1.3,7.4c0,0.3,0.1,1.4,0.3,3.4
		c0.2,2,1.4,3.6,3.6,4.8l0.2,0.2c0.7,0.6,1.5,0.8,2.6,0.8c1-0.1,1.9-0.1,2.6-0.2c3.3-0.4,6.4-1.7,9.3-3.9c2.9-2.2,5.5-4.6,7.6-7.2
		c2.1-2.6,3.8-5,5.2-7.3c1.4-2.3,2.2-3.7,2.4-4.3c0.3-0.4,0.4-1,0.4-1.8l0-1l-0.6-0.9c-0.7-0.3-1.3-0.4-1.9-0.4
		c-0.4,0-0.9,0.3-1.3,0.6c-0.5,0.4-0.9,0.7-1.1,1c-4.1,6.6-7.3,10.9-9.6,12.9c-2.3,2-4,3.1-4.9,3.2c-1.5,0.2-2.3-0.4-2.3-1.7
		c0-0.4,0.1-1,0.4-1.8c0-0.3,0.4-1.1,1.1-2.5c0.7-1.4,1.5-3,2.3-5c0.8-1.9,1.6-3.9,2.2-6c0.7-2.1,1-4.1,1-5.9c0-2-0.4-3.7-1.3-5.3
		c-0.9-1.6-2.3-3-4.2-4.2l-9.6-5.3c1.5-3.4,2.5-6.3,3-8.8c0.5-2.4,0.8-4.5,0.8-6.1c0-2.6-0.6-4.4-1.7-5.5c-1.1-1-2.5-1.7-4.1-2.1
		c-0.4-0.1-1.1-0.1-2.1,0c-1.1,0.1-2.1,0.4-3,0.9c-0.9,0.5-1.7,1-2.4,1.6l-3.1,3.1c-1.5,2.4-2.2,4.8-2.2,7.1c0,2.5,0.6,4.7,1.8,6.6
		c1.2,1.9,2.7,3.7,4.5,5.3c-0.8,2.7-1.8,5.4-2.9,8.1c-1.2,2.7-2.3,5.3-3.6,7.7s-2.4,4.8-3.7,6.9c-0.2,0.4-0.4,0.8-0.7,1.1
		c0,0-0.1,0.1-0.2,0.1c-3.7,5.1-6.9,9.1-9.8,11.9c-1.1,1-2.9,2.5-5.4,4.2c-2.5,1.8-5.6,2.9-9.4,3.3c-2.3,0.3-4,0.2-5-0.3
		c-1-0.5-1.6-1.6-1.6-3.4c0-1,0.3-3,1-6c1.1-0.5,2.8-1.4,5.1-2.7c2.3-1.3,4.9-3.1,7.7-5.3c2.8-2.2,5.7-4.9,8.6-8
		c2.9-3.1,5.6-6.8,7.9-11c1.2-2.4,2-4.3,2.3-5.9c0.3-1.6,0.5-2.9,0.5-4c0-3-1-4.9-3-5.6c-2-0.7-4-1-5.9-0.8c-1.4,0.2-3,0.6-4.9,1.3
		c-1.9,0.7-4,1.9-6.3,3.6c-2.3,1.7-4.7,4-7.4,6.8c-2.7,2.8-5.4,6.5-8.3,11c-3,4.5-5.1,8.7-6.4,12.7c-0.4,1.2-0.7,2.4-1,3.6
		c-4,6.5-7.2,10.8-9.5,12.8c-2.3,2-4,3.1-4.9,3.2c-1.5,0.2-2.3-0.4-2.3-1.7c0-0.4,0.1-1,0.4-1.8c0-0.3,0.4-1.1,1.1-2.5
		c0.7-1.4,1.5-3,2.3-5c0.8-1.9,1.6-3.9,2.2-6c0.7-2.1,1-4.1,1-5.9c0-2-0.4-3.7-1.3-5.3c-0.9-1.6-2.3-3-4.2-4.2l-9.6-5.3
		c1.5-3.4,2.5-6.3,3-8.8c0.5-2.4,0.8-4.5,0.8-6.1c0-2.6-0.6-4.4-1.7-5.5c-1.1-1-2.5-1.7-4.1-2.1c-0.4-0.1-1.1-0.1-2.1,0
		c-1.1,0.1-2.1,0.4-3,0.9c-0.9,0.5-1.7,1-2.4,1.6l-3.1,3.1c-1.5,2.4-2.2,4.8-2.2,7.1c0,2.5,0.6,4.7,1.8,6.6c1.2,1.9,2.7,3.7,4.5,5.3
		c0.5,0.4-1,3.5-1.4,4.3c-1,2.1-2.5,4.1-4.5,5.8c-1.5,1.3-4.1,3.2-5.9,4.1c-1.4,0.8-2.8,1.5-4,2.1l1.8-4.1c1.1-2.7,1.8-5.1,2-7.1
		c0.3-2,0.5-3.7,0.6-5.1c0-2.1-0.4-3.8-1.2-5c-0.8-1.3-1.7-2.2-2.9-2.9c-1.2-0.6-2.4-1-3.7-1.1c-1.3-0.1-2.5-0.1-3.6,0
		c-1,0.1-2.1,0.4-3.5,0.8c-4.1,1.7-7.5,3.6-10.1,5.8c-2.6,2.2-4.6,4.4-6,6.8c-1.4,2.3-2.4,4.5-2.8,6.7c-0.5,2.1-0.7,4-0.7,5.5
		c-3.3,3.1-6,7.1-8.3,11.9c-0.6,1.2-1.1,2.4-1.5,3.6c-1.2,1.5-2.3,2.9-3.2,4.1c-1.6,1.9-2.9,3.5-4,4.7c-1,1-2.7,2.4-5.1,4.2
		c-2.5,1.8-5.5,2.9-9,3.3c-1.6,0.2-3.3,0.1-4.8-0.3c-1.6-0.4-2.4-1.5-2.4-3.3c0-1.3,0.3-3,0.8-5.1c0.5-2.1,1.3-4.4,2.3-6.8
		c1-2.5,2.2-5,3.7-7.8c1.4-2.7,3.1-5.4,5-8.1c1.1-1.6,2.3-3.1,3.7-4.7c1.4-1.6,2.7-3,4-4.4c1.3-1.3,2.5-2.4,3.5-3.2
		c1-0.8,1.8-1.3,2.4-1.3c0.5-0.1,0.8,0.2,0.8,0.7c0,0.8-0.4,1.9-1.2,3.5c-0.8,1.5-1.7,3.1-2.6,4.6c-1,1.5-1.8,2.9-2.7,4.2
		c-0.8,1.3-1.2,2.1-1.2,2.5c0,0.8,0.3,1.3,1,1.6c0.7,0.3,1.4,0.4,2.1,0.3c1.5-0.2,2.9-1.1,4.3-2.7c1.4-1.6,2.6-3.4,3.6-5.3
		c1-1.9,1.8-3.9,2.4-5.9c0.6-2,0.9-3.3,0.9-4.1c0-3.4-1-5.5-3-6.4c-2-0.9-4-1.2-6.1-1c-1.4,0.2-3,0.6-4.9,1.3
		c-1.9,0.7-4,1.9-6.3,3.6c-2.3,1.7-4.6,4-7.2,6.8c-0.3,0.3-0.6,0.7-0.9,1c-4.4,2-12.6,5.8-13.7,6.1c-1.4,0.5-2.9,1-4.5,1.6
		c-1.6,0.6-3.1,1.1-4.6,1.7c-1.5,0.6-2.8,1-3.9,1.4c-1.9-1.5-5.1-2.8-9.6-3.9c-4.5-1.1-11-1-19.5,0.2c-4.7,0.7-13,2.6-24.9,5.8
		c-1.2,0.3-2.7,0.6-4.5,0.9c-1.8,0.3-3.2,0.4-4.3,0.1c-1.2-0.2-1.8-1-1.7-2.2c0.1-1.2,0.9-2.9,2.4-5.1c1.5-2.2,3.9-5.2,7.2-8.9
		c4.2-4.7,9.3-9,15.3-13c5.9-4,11.8-7.5,17.4-10.5c5.7-3,10.8-5.5,15.4-7.4c4.6-1.9,7.6-3,9.1-3.3c3.3-0.8,6.4-1.2,9.3-1.3
		c2.9-0.1,4.7,1.1,5.6,3.6c0.4,1,0.4,2.1-0.1,3.3c-0.5,1.2-1.2,2.5-2.1,3.7c-1,1.2-2,2.4-3.2,3.5c-1.2,1.1-2.2,2.1-3.2,3l-7,5.1
		l-1.2,0.7c-4,2.5-7.4,4.7-10.2,6.4c-2.8,1.7-4.7,2.8-5.6,3.3c-2.5,1.7-3.6,3.2-3.4,4.3c0.2,1.1,1.6,2.4,4,3.6
		c1.4,0.9,2.7,1.3,4,1.3c1.3,0,2.5-0.2,3.6-0.4c1.2-0.3,2.4-0.7,3.5-1.4c0.7-0.3,1.5-0.8,2.4-1.3c0.9-0.5,1.7-1,2.6-1.7l0.6-0.3
		l0.2,0l0.2-0.2c1.5-0.8,2.9-1.7,4.1-2.7c1.2-1,2.3-1.9,3.3-2.6l0.2,0c0.3-0.3,0.6-0.6,1-0.9c0.4-0.3,0.8-0.7,1.2-1.1l2.7-2.7
		c4-3.8,6.5-7.2,7.7-10.2c1.1-2.9,1.8-4.8,1.9-5.6c0.5-2.3,0.6-4.2,0.3-5.8c-0.4-1.6-0.7-2.6-0.9-2.9c-0.8-2.5-2.5-4.6-4.9-6.3
		c-2.4-1.7-5.4-2.8-9.1-3.3c-3.6-0.6-7.8-0.5-12.4,0.2c-4.6,0.7-9.6,2-14.9,4.1C89.6,41,83.5,44,77,47.7c-6.5,3.8-12.4,8-17.8,12.6
		c-5.4,4.7-9.8,9.7-13.3,15.1c-3.5,5.4-5,11-4.7,16.9c0,2.6,0.7,4.8,2.1,6.6c1.1,1.6,2.9,2.9,5.3,4c2.4,1.1,5.9,1.4,10.4,0.8
		c4.4-0.5,9-1.3,13.8-2.4c4.8-1.1,9.4-2,13.8-2.8c-1.2,0.5-2.1,0.8-2.7,0.9c-11.5,4.3-20.2,8.3-26.1,11.9
		c-5.9,3.6-10.1,6.8-12.5,9.6c-2.9,3.2-4.2,6.1-4.1,8.7c0,1.8,0.7,3.7,2.1,5.6c1.4,1.9,3.4,3.5,6.1,4.8c2.7,1.3,6.1,2,10.2,2.2
		c4.1,0.2,9-0.4,14.6-2c7.9-2.2,14.8-5.1,20.6-8.6C100.6,128.2,105.4,124.6,109.1,120.8z M304,49.4c0-1.6,0.8-2.9,2.4-4
		c0.3-0.2,0.8-0.3,1.4-0.4c0.4,0.1,0.8,0.2,1,0.5c0.3,0.2,0.4,0.7,0.4,1.5c0,1.6-0.2,3.2-0.6,5c-0.4,1.7-0.8,3-1.2,3.7
		c-1.1-0.9-2-1.9-2.6-3C304.4,51.5,304,50.5,304,49.4z M271.5,78.9c1.8-3,3.6-5.9,5.6-8.7c2-2.8,4-5.1,5.9-7.1c2-2,3.7-3.1,5.2-3.2
		c0.3,0,0.5,0,0.6,0.1c0,0.1,0,0.2,0.1,0.3c0.1,0.1,0.1,0.2,0.1,0.3c0,0.7-0.4,2-1.3,4c-0.9,2-2.2,4.2-4,6.7
		c-1.8,2.5-4.1,5.1-6.9,7.9c-2.8,2.8-6.1,5.3-9.9,7.6C268.2,84.5,269.7,81.9,271.5,78.9z M218.6,59.4c0-1.6,0.8-2.9,2.4-4
		c0.3-0.2,0.8-0.3,1.4-0.4c0.4,0.1,0.8,0.2,1,0.5c0.3,0.2,0.4,0.7,0.4,1.5c0,1.6-0.2,3.2-0.6,5c-0.4,1.7-0.8,3-1.2,3.7
		c-1.1-0.9-2-1.9-2.6-3C218.9,61.5,218.6,60.4,218.6,59.4z M187.9,82.2c0.9-2,2.1-3.8,3.6-5.5c1.4-1.7,2.9-3.1,4.4-4.2
		c1.5-1.2,2.8-1.8,3.9-1.9c0.5-0.1,1,0,1.2,0.1c0.8,0.3,1.2,1.5,1.3,3.8c0,1.7-0.3,3.8-0.9,6.4c-0.6,2.5-1.7,5.5-3.3,9
		c-1.2,0.8-2.4,1.3-3.4,1.7c-1,0.3-2,0.5-3,0.6c-1.8,0.2-3.1-0.1-3.9-0.8c-0.8-0.7-1.2-1.8-1.3-3.3
		C186.5,86.1,186.9,84.2,187.9,82.2z M172.9,112.6c0.6-1.7,1.4-3.4,2.2-5.1c0.9-1.7,1.8-3.4,2.8-5c0.9-1.6,1.7-2.8,2.2-3.7
		c0.8,0.4,1.7,0.7,2.7,0.8c1,0.1,1.8,0.1,2.5,0c0.4,0,0.8-0.2,1-0.3l1.4-0.2c2.3-0.3,4.4-0.8,6.2-1.5l-2.9,4.4
		c-2.3,3.5-4.4,6.4-6.1,8.5c-1.8,2.2-3.3,3.9-4.7,5.1c-1.4,1.3-2.6,2.1-3.6,2.6c-1,0.4-1.9,0.7-2.6,0.8c-1.4,0.2-2.1-0.5-2.1-2.1
		C172,115.8,172.3,114.3,172.9,112.6z M75.9,133.6c-5.3,1.8-9.7,2.7-13.2,2.7c-3.4,0-6.1-0.4-8.1-1.1c-2-0.7-3.4-1.7-4.3-2.8
		c-0.9-1.1-1.5-2-1.8-2.6c-0.1-0.1-0.2-0.4-0.2-0.8l0-0.4c-0.3-0.9-0.1-1.7,0.6-2.5c0.7-0.8,1.4-1.6,2-2.3c0.8-0.7,1.8-1.5,3.1-2.3
		c8.3-5,16.9-9.3,25.7-13c8.8-3.6,17-6.7,24.7-9.3l2.7,0.9c1.9,0.8,3.1,2.2,3.4,4c0.4,1.8-0.4,4.3-2.3,7.4c-3.4,4.7-7.9,9-13.6,13
		C88.9,128.5,82.7,131.5,75.9,133.6z"/>
	
		<ellipse transform="matrix(0.9973 -7.378545e-02 7.378545e-02 0.9973 -7.5853 27.5134)" cx="368.6" cy="116.4" rx="44.7" ry="9.7"/>
	<path d="M321.8,113.5c-9.8,0.7-19.5,1.8-29.3,3c-9.7,1.2-19.4,2.6-29.1,4c-4.8,0.7-9.7,1.5-14.5,2.2l-7.3,1.1l-7.2,1.2
		c-9.7,1.6-19.3,3.4-28.9,5.1c-9.6,1.8-19.2,3.7-28.8,5.6c-9.6,2-19.2,4-28.7,6.1c-19.1,4.2-38.2,8.6-57.2,13.5
		c-0.3,0.1-0.4,0.3-0.4,0.6c0.1,0.3,0.3,0.5,0.6,0.4l57.7-10.8l28.9-5.3c9.6-1.8,19.2-3.5,28.9-5.2c19.2-3.5,38.5-6.5,57.8-9.8
		c19.3-3.3,38.5-6.9,57.7-10.9l0,0c0.2,0,0.4-0.3,0.4-0.5C322.3,113.7,322,113.5,321.8,113.5z"/>
	<path d="M316.1,123.3c-6.6,0.5-13.2,1.2-19.8,2.1c-6.6,0.9-13.1,2-19.6,3.1c-13,2.3-26,5.2-38.9,8c-6.4,1.5-12.9,3-19.3,4.5
		c-6.4,1.6-12.8,3.2-19.3,4.8c-12.8,3.3-25.6,6.8-38.2,10.7c-0.2,0.1-0.4,0.3-0.3,0.6c0.1,0.3,0.3,0.4,0.6,0.4
		c13-2.6,25.9-5.3,38.8-8l38.8-8.2l38.8-8.1c12.9-2.8,25.8-5.6,38.6-8.9c0.2-0.1,0.4-0.3,0.4-0.5
		C316.6,123.5,316.4,123.3,316.1,123.3z"/>
</g>
<g>
	<path class="st0" d="M341,123l2.5-2.4c0.8,1,1.8,1.5,3.1,1.4c1.4-0.1,2.3-1,2.2-1.8c-0.1-0.8-0.8-1.2-2.3-1.1l-1.3,0.1l-0.2-2
		l3.7-3.2l-5.3,0.4l0.6-3.2l10.2-0.7l-0.6,2.8l-4.1,3.3c1.8,0.4,3,1.4,3.1,3.2c0.2,3.1-2.2,5.3-5.9,5.6
		C344.2,125.5,342.3,124.7,341,123z"/>
	<path class="st0" d="M354.6,119.1c-0.3-4.5,2.5-9.1,7.2-9.5c3.5-0.2,5.8,2.1,6,5.3c0.3,4.5-2.5,9.1-7.2,9.5
		C357.1,124.6,354.8,122.3,354.6,119.1z M363.8,115.4c-0.1-1.7-1-2.4-2.2-2.3c-2.1,0.1-3.3,3.2-3.1,5.5c0.1,1.6,1,2.4,2.2,2.3
		C362.8,120.8,364,117.7,363.8,115.4z"/>
	<path class="st0" d="M369.2,118.1c-0.3-4.5,2.5-9.1,7.2-9.5c3.5-0.2,5.8,2.1,6,5.3c0.3,4.5-2.5,9.1-7.2,9.5
		C371.7,123.6,369.4,121.3,369.2,118.1z M378.4,114.4c-0.1-1.7-1-2.4-2.2-2.3c-2.2,0.1-3.3,3.2-3.1,5.5c0.1,1.6,1,2.4,2.2,2.3
		C377.4,119.8,378.6,116.7,378.4,114.4z"/>
	<path class="st0" d="M383.8,117.1c-0.3-4.5,2.5-9.1,7.2-9.5c3.5-0.2,5.8,2.1,6,5.3c0.3,4.5-2.5,9.1-7.2,9.5
		C386.3,122.6,384,120.3,383.8,117.1z M393,113.4c-0.1-1.7-1-2.4-2.2-2.3c-2.2,0.1-3.3,3.2-3.1,5.5c0.1,1.6,1,2.4,2.2,2.3
		C392,118.8,393.2,115.7,393,113.4z"/>
</g>
</svg>
